<svg height="32" viewBox="0 0 32 32" width="32" xmlns="http://www.w3.org/2000/svg"><path d="m.8351675 31.163434c.3802961.373926.825053.622136 1.3342707.744632.5092176.122494 1.0136038.122494 1.5131582 0 .4995546-.122496.9265956-.361036 1.2811232-.715621l11.0416834-11.043762 11.022397 11.034087c.36741.367485.800894.61086 1.300448.730132.499555.11927 1.00072.116046 1.503495-.009672.502777-.125717.941091-.37554 1.314945-.74947.373852-.373926.623632-.812324.749332-1.315194.125673-.502869.128894-1.004126.009663-1.503772-.119259-.499644-.359373-.933208-.720343-1.300689l-11.022356-11.043781 11.022356-11.0244194c.36097-.3674806.602695-.801045.725174-1.3006929.122453-.499648.119232-.999296-.009664-1.498944-.12892-.499648-.38031-.936434-.754162-1.3103579-.380323-.38036733-.820261-.63341299-1.319816-.759137-.499528-.12572401-.999069-.12894567-1.498624-.00966498-.499554.11928068-.933038.36266138-1.300448.73014198l-11.022397 11.0244192-11.0416834-11.0341238c-.3545276-.35456757-.7831792-.5914917-1.2859546-.7107724-.5027757-.11925428-1.0087723-.11925428-1.51799 0-.5092177.1192807-.9507535.3691047-1.3246075.749472-.3674119.3739239-.61074701.8139316-.73000538 1.3200229-.11923197.5060913-.11923197 1.0105718 0 1.5134413.11925837.50287.35291712.92838.70097628 1.2765306l11.0417226 11.0340844-11.0417226 11.063123c-.34805916.34814-.58493897.772033-.71063946 1.271678s-.12731102 1.004125-.00483159 1.513441.37064615.950939.74450015 1.324868z" opacity=".6"/></svg>